<!-- Generated by IcoMoon.io -->
<svg version="1.1" xmlns="http://www.w3.org/2000/svg" width="32" height="32" viewBox="0 0 32 32">
<path d="M16 13.924l-8.9-8.9c-0.579-0.579-1.515-0.579-2.094 0s-0.579 1.515 0 2.094l8.9 8.9-8.9 8.9c-0.579 0.579-0.579 1.515 0 2.094s1.515 0.579 2.094 0l8.9-8.9 8.9 8.9c0.579 0.579 1.515 0.579 2.094 0 0.289-0.289 0.434-0.668 0.434-1.047s-0.145-0.758-0.434-1.047l-8.9-8.9 8.9-8.9c0.289-0.289 0.434-0.668 0.434-1.047s-0.145-0.758-0.434-1.047c-0.579-0.579-1.515-0.579-2.094 0l-8.9 8.9z"></path>
</svg>
