<svg width="30" height="30" viewBox="0 0 30 30" fill="none" xmlns="http://www.w3.org/2000/svg">
<g clip-path="url(#clip0_348_1243)" filter="url(#filter0_d_348_1243)">
<path fill-rule="evenodd" clip-rule="evenodd" d="M15.0002 6.375C12.8637 6.37611 10.7971 7.13284 9.17018 8.50989C7.54324 9.88694 6.46196 11.7945 6.11969 13.8915C5.77742 15.9885 6.19648 18.1382 7.30193 19.9561C8.40739 21.7741 10.1272 23.1418 12.1537 23.8147C12.6008 23.8977 12.7692 23.6206 12.7692 23.385C12.7692 23.1494 12.7603 22.4663 12.7573 21.7194C10.2536 22.2603 9.72452 20.6629 9.72452 20.6629C9.31617 19.6256 8.72601 19.3529 8.72601 19.3529C7.90932 18.7987 8.78712 18.8091 8.78712 18.8091C9.69174 18.8728 10.1671 19.7323 10.1671 19.7323C10.9689 21.1 12.273 20.7044 12.7856 20.4732C12.8661 19.8938 13.1001 19.4996 13.3579 19.2759C11.3579 19.0506 9.25656 18.283 9.25656 14.8541C9.24416 13.9648 9.57605 13.1048 10.1835 12.452C10.0911 12.2268 9.78264 11.3169 10.2715 10.0811C10.2715 10.0811 11.0271 9.84102 12.7469 10.9983C14.222 10.5972 15.7784 10.5972 17.2536 10.9983C18.9719 9.84102 19.726 10.0811 19.726 10.0811C20.2163 11.314 19.9078 12.2238 19.8154 12.452C20.4248 13.1049 20.7574 13.9664 20.7439 14.857C20.7439 18.2934 18.6381 19.0506 16.6351 19.2714C16.957 19.55 17.2446 20.0938 17.2446 20.9296C17.2446 22.1269 17.2342 23.0901 17.2342 23.385C17.2342 23.6236 17.3966 23.9022 17.8527 23.8147C19.8795 23.1417 21.5994 21.7738 22.7049 19.9555C23.8103 18.1372 24.2291 15.9872 23.8865 13.89C23.5438 11.7929 22.462 9.88527 20.8345 8.50845C19.207 7.13164 17.14 6.37541 15.0032 6.375H15.0002Z" fill="white"/>
<path d="M9.4083 19.2245C9.38892 19.2689 9.31739 19.2823 9.25927 19.2511C9.20114 19.22 9.15793 19.1622 9.17879 19.1163C9.19966 19.0704 9.2697 19.0585 9.32782 19.0896C9.38595 19.1207 9.43065 19.18 9.4083 19.2245Z" fill="white"/>
<path d="M9.77348 19.6284C9.74262 19.6438 9.70731 19.6481 9.6736 19.6406C9.63989 19.633 9.60987 19.614 9.58869 19.5869C9.53056 19.5246 9.51863 19.4387 9.56334 19.4002C9.60805 19.3616 9.68854 19.3794 9.74666 19.4416C9.80478 19.5039 9.81819 19.5898 9.77348 19.6284Z" fill="white"/>
<path d="M10.1282 20.1428C10.0731 20.1814 9.97918 20.1428 9.92702 20.0658C9.91259 20.052 9.90112 20.0354 9.89329 20.0171C9.88545 19.9987 9.88141 19.979 9.88141 19.9591C9.88141 19.9392 9.88545 19.9195 9.89329 19.9011C9.90112 19.8828 9.91259 19.8662 9.92702 19.8524C9.98216 19.8153 10.0761 19.8524 10.1282 19.928C10.1804 20.0035 10.1819 20.1043 10.1282 20.1428Z" fill="white"/>
<path d="M10.6095 20.6409C10.5603 20.6958 10.4605 20.6809 10.3785 20.6068C10.2966 20.5328 10.2772 20.432 10.3264 20.3786C10.3755 20.3253 10.4754 20.3401 10.5603 20.4127C10.6453 20.4853 10.6617 20.5876 10.6095 20.6409Z" fill="white"/>
<path d="M11.2846 20.9308C11.2623 21.0004 11.1609 21.0316 11.0596 21.0019C10.9583 20.9723 10.8912 20.8893 10.9106 20.8182C10.9299 20.7471 11.0328 20.7145 11.1356 20.7471C11.2384 20.7797 11.304 20.8582 11.2846 20.9308Z" fill="white"/>
<path d="M12.0209 20.981C12.0209 21.0536 11.9374 21.1159 11.8301 21.1173C11.7228 21.1188 11.6349 21.0596 11.6349 20.9869C11.6349 20.9143 11.7183 20.8521 11.8256 20.8506C11.9329 20.8491 12.0209 20.9069 12.0209 20.981Z" fill="white"/>
<path d="M12.7064 20.8669C12.7198 20.9396 12.6453 21.0151 12.538 21.0329C12.4307 21.0507 12.3368 21.0077 12.3234 20.9366C12.31 20.8655 12.3875 20.7884 12.4918 20.7691C12.5961 20.7499 12.693 20.7943 12.7064 20.8669Z" fill="white"/>
</g>
<defs>
<filter id="filter0_d_348_1243" x="0" y="0" width="30" height="30" filterUnits="userSpaceOnUse" color-interpolation-filters="sRGB">
<feFlood flood-opacity="0" result="BackgroundImageFix"/>
<feColorMatrix in="SourceAlpha" type="matrix" values="0 0 0 0 0 0 0 0 0 0 0 0 0 0 0 0 0 0 127 0" result="hardAlpha"/>
<feOffset/>
<feGaussianBlur stdDeviation="3"/>
<feColorMatrix type="matrix" values="0 0 0 0 0.921569 0 0 0 0 0.752941 0 0 0 0 0.756863 0 0 0 1 0"/>
<feBlend mode="darken" in2="BackgroundImageFix" result="effect1_dropShadow_348_1243"/>
<feBlend mode="normal" in="SourceGraphic" in2="effect1_dropShadow_348_1243" result="shape"/>
</filter>
<clipPath id="clip0_348_1243">
<rect width="18" height="18" fill="white" transform="translate(6 6)"/>
</clipPath>
</defs>
</svg>
