<svg width="18" height="18" viewBox="0 0 18 18" fill="none" xmlns="http://www.w3.org/2000/svg">
<path fill-rule="evenodd" clip-rule="evenodd" d="M9.0002 0.375C6.86362 0.376109 4.7971 1.13284 3.17015 2.50989C1.54321 3.88694 0.461927 5.79451 0.119658 7.8915C-0.222611 9.98849 0.196445 12.1382 1.3019 13.9561C2.40736 15.7741 4.12713 17.1418 6.1537 17.8147C6.60079 17.8977 6.7692 17.6206 6.7692 17.385C6.7692 17.1494 6.76025 16.4663 6.75727 15.7194C4.25355 16.2603 3.72449 14.6629 3.72449 14.6629C3.31614 13.6256 2.72598 13.3529 2.72598 13.3529C1.90929 12.7987 2.78709 12.8091 2.78709 12.8091C3.69171 12.8728 4.16712 13.7323 4.16712 13.7323C4.9689 15.1 6.27292 14.7044 6.78559 14.4732C6.86607 13.8938 7.10005 13.4996 7.35787 13.2759C5.35787 13.0506 3.25653 12.283 3.25653 8.85407C3.24413 7.96478 3.57602 7.10479 4.18351 6.45201C4.09111 6.22677 3.78261 5.31693 4.27143 4.08107C4.27143 4.08107 5.02703 3.84102 6.74685 4.99833C8.222 4.59722 9.7784 4.59722 11.2536 4.99833C12.9719 3.84102 13.726 4.08107 13.726 4.08107C14.2163 5.31396 13.9078 6.22381 13.8154 6.45201C14.4248 7.10489 14.7574 7.96639 14.7439 8.85703C14.7439 12.2934 12.638 13.0506 10.6351 13.2714C10.957 13.55 11.2446 14.0938 11.2446 14.9296C11.2446 16.1269 11.2342 17.0901 11.2342 17.385C11.2342 17.6236 11.3966 17.9022 11.8527 17.8147C13.8795 17.1417 15.5994 15.7738 16.7048 13.9555C17.8103 12.1372 18.2291 9.98722 17.8865 7.89004C17.5438 5.79285 16.462 3.88527 14.8345 2.50845C13.207 1.13164 11.14 0.375406 9.00317 0.375H9.0002Z" fill="white"/>
</svg>
