<svg width="30" height="30" viewBox="0 0 30 30" fill="none" xmlns="http://www.w3.org/2000/svg">
<path d="M28.5 25.4999H15.2143C14.3863 25.4999 13.7143 26.172 13.7143 26.9999C13.7143 27.828 14.3863 28.5 15.2143 28.5H28.5C29.328 28.5 30 27.828 30 26.9999C30 26.172 29.328 25.4999 28.5 25.4999ZM1.5 4.49994H28.5C29.328 4.49994 30 3.82798 30 2.99994C30 2.1719 29.328 1.49994 28.5 1.49994H1.5C0.67201 1.49999 0 2.17195 0 2.99999C0 3.82798 0.67201 4.49994 1.5 4.49994ZM28.5 13.4999H8.14286C7.31487 13.4999 6.64286 14.172 6.64286 15C6.64286 15.828 7.31487 16.5 8.14286 16.5H28.5C29.328 16.5 30 15.828 30 15C30 14.172 29.328 13.4999 28.5 13.4999Z" fill="#212733"/>
</svg>
